<svg xmlns="http://www.w3.org/2000/svg" viewBox="0 0 500 305"><defs><clipPath id="a"><path d="M131 69.63h107V191H131Zm0 0"/></clipPath><clipPath id="b"><path d="m181.79 70.53-47.56 27.38a5.73 5.73 0 0 0-2.86 4.95v54.78c0 2.05 1.1 3.94 2.86 4.96L181.8 190a5.75 5.75 0 0 0 5.74 0l47.55-27.39a5.73 5.73 0 0 0 2.87-4.96v-54.78c0-2.04-1.1-3.93-2.88-4.95l-47.54-27.38a5.86 5.86 0 0 0-5.76 0"/></clipPath><clipPath id="d"><path d="M132.37 69.63H237V191H132.37Zm0 0"/></clipPath><clipPath id="e"><path d="M132.54 161.12c.46.6 1.02 1.1 1.7 1.48l40.79 23.5 6.8 3.89a5.84 5.84 0 0 0 4.44.54l50.15-91.58a5.78 5.78 0 0 0-1.33-1.06l-31.14-17.93-16.46-9.44a6.54 6.54 0 0 0-1.49-.6Zm0 0"/></clipPath><clipPath id="g"><path d="M134.32 69.63H238v121.03H134.32Zm0 0"/></clipPath><clipPath id="h"><path d="M184.09 69.8a5.6 5.6 0 0 0-2.29.73l-47.42 27.3 51.14 92.87a5.8 5.8 0 0 0 2.03-.71l47.56-27.39a5.74 5.74 0 0 0 2.78-3.91l-52.13-88.8a6.17 6.17 0 0 0-1.63-.09"/></clipPath><linearGradient id="c" x1="0" x2="1" y1="0" y2="0" gradientTransform="matrix(-68.7 139.8 -134 -65.5 218.98 60.4)" gradientUnits="userSpaceOnUse"><stop offset=".3" stop-color="#3e863d"/><stop offset=".5" stop-color="#55934f"/><stop offset=".8" stop-color="#5aad45"/></linearGradient><linearGradient id="f" x1="0" x2="1" y1="0" y2="0" gradientTransform="matrix(125.1 -92.2 94.6 127.7 122.48 177.2)" gradientUnits="userSpaceOnUse"><stop offset=".57" stop-color="#3e863d"/><stop offset=".72" stop-color="#619857"/><stop offset="1" stop-color="#76ac64"/></linearGradient><linearGradient id="i" x1="0" x2="1" y1="0" y2="0" gradientTransform="matrix(103.5 0 0 120.9 134.4 130.24)" gradientUnits="userSpaceOnUse"><stop offset=".16" stop-color="#6bbf47"/><stop offset=".38" stop-color="#79b461"/><stop offset=".47" stop-color="#75ac64"/><stop offset=".7" stop-color="#659e5a"/><stop offset=".9" stop-color="#3e863d"/></linearGradient></defs><path fill="#689f63" d="M247.13 305a9.47 9.47 0 0 1-4.63-1.24l-15.13-8.9c-2.26-1.23-1.13-1.68-.34-1.9 2.93-1.13 3.61-1.36 6.77-3.16.34-.11.8-.11 1.13.11l11.52 6.87a1.7 1.7 0 0 0 1.46 0l45.04-26c.46-.23.68-.67.68-1.24v-51.88c0-.46-.22-.9-.68-1.25l-45.04-25.88a1.67 1.67 0 0 0-1.46 0L201.4 216.4c-.45.34-.68.8-.68 1.25v51.88c0 .57.23 1.01.68 1.24l12.3 7.1c6.77 3.37 10.84-.57 10.84-4.5v-51.22c0-.8.56-1.35 1.36-1.35h5.64c.79 0 1.35.56 1.35 1.35v51.21c0 8.9-4.85 14.07-13.32 14.07-2.7 0-4.74 0-10.5-2.81l-11.74-6.87a9.48 9.48 0 0 1-4.74-8.22v-51.88a9.5 9.5 0 0 1 4.74-8.22l45.16-25.89a9.5 9.5 0 0 1 9.48 0l45.04 26a9.2 9.2 0 0 1 4.74 8.1v51.9a9.5 9.5 0 0 1-4.74 8.2l-45.04 26a10.37 10.37 0 0 1-4.85 1.25"/><path fill="#689f63" d="M261.12 269.32c-19.75 0-23.93-9.12-23.93-16.66 0-.68.68-1.24 1.36-1.24h5.86c.57 0 1.13.45 1.25 1.01.9 5.97 3.5 8.9 15.46 8.9 9.49 0 13.55-2.14 13.55-7.1 0-2.92-1.24-5.06-15.92-6.52-12.41-1.24-19.98-3.94-19.98-13.74 0-9.11 7.68-14.52 20.55-14.52 14.33 0 21.56 5.07 22.46 15.76 0 .34-.11.79-.34 1.02a1.7 1.7 0 0 1-1.02.45h-5.87c-.56 0-1.12-.45-1.24-1.02-1.35-6.3-4.85-8.21-14.1-8.21-10.4 0-11.52 3.6-11.52 6.3 0 3.27 1.35 4.16 15.35 6.08 13.89 1.8 20.43 4.39 20.43 14.07 0 9.8-8.12 15.42-22.46 15.42m65.02-54.37a8.68 8.68 0 0 1-17.39 0 8.68 8.68 0 0 1 8.7-8.66 8.61 8.61 0 0 1 8.69 8.66Zm-15.92-.11a7.28 7.28 0 1 0 14.56 0c0-3.94-3.27-7.2-7.33-7.2a7.19 7.19 0 0 0-7.23 7.2m4.07-4.84h3.27c1.13 0 3.39 0 3.39 2.59 0 1.8-1.13 2.14-1.81 2.36 1.35.12 1.47 1.01 1.58 2.25.11.8.34 2.14.56 2.6h-2.03a47.5 47.5 0 0 1-.45-3.05c-.11-.56-.34-.9-1.01-.9h-1.7v3.94h-1.8Zm1.8 4.28h1.47c1.24 0 1.47-.9 1.47-1.35 0-1.35-.9-1.35-1.36-1.35h-1.58Zm0 0"/><path fill="#333" fill-rule="evenodd" d="M107.49 101.95a5.61 5.61 0 0 0-2.82-4.95L56.8 69.53a5.25 5.25 0 0 0-2.6-.67h-.45a5.4 5.4 0 0 0-2.7.67L3.3 97a5.76 5.76 0 0 0-2.93 5.06l.11 73.84c0 1 .56 2.02 1.47 2.47.79.57 1.92.57 2.82 0l28.44-16.2a5.8 5.8 0 0 0 2.83-5.07v-34.44a6.05 6.05 0 0 1 2.93-5.07l12.08-6.86a5.76 5.76 0 0 1 5.76 0l12.08 6.86a5.9 5.9 0 0 1 2.93 5.07v34.44a5.9 5.9 0 0 0 2.93 5.06l28.34 16.21c.9.57 2.03.57 2.93 0a2.93 2.93 0 0 0 1.47-2.47ZM337.54.42a2.77 2.77 0 0 0-2.93 0 2.8 2.8 0 0 0-1.47 2.48v73.16a2 2 0 0 1-.9 1.69c-.68.45-1.47.45-2.03 0l-11.97-6.87a6.04 6.04 0 0 0-5.87 0l-47.75 27.58a5.72 5.72 0 0 0-2.93 4.95v55.04a5.9 5.9 0 0 0 2.93 5.07l47.75 27.46a6.07 6.07 0 0 0 5.87 0L366 163.4a5.72 5.72 0 0 0 2.93-4.95V21.25a5.77 5.77 0 0 0-2.93-5.07Zm-4.51 140.02c0 .56-.23 1.01-.68 1.24l-16.48 9.45c-.45.23-.9.23-1.36 0l-16.48-9.45c-.45-.23-.67-.68-.67-1.24v-18.9c0-.46.22-1.02.67-1.24l16.37-9.46a1.7 1.7 0 0 1 1.47 0l16.48 9.46c.45.22.68.78.68 1.23Zm163.67-19.36a5.72 5.72 0 0 0 2.94-4.95v-13.4a5.73 5.73 0 0 0-2.94-4.95l-47.52-27.57a5.85 5.85 0 0 0-5.76 0l-47.74 27.57a5.73 5.73 0 0 0-2.94 4.95v55.04a5.76 5.76 0 0 0 2.94 5.07l47.52 27.01a5.6 5.6 0 0 0 5.64 0l28.67-15.98a2.9 2.9 0 0 0 1.58-2.48c0-1.01-.56-2.02-1.46-2.47l-48.2-27.58c-.9-.45-1.36-1.46-1.36-2.48v-17.22c0-1 .45-2.02 1.36-2.47l15.01-8.67c.9-.45 2.03-.45 2.82 0l15.01 8.67a2.8 2.8 0 0 1 1.47 2.47v13.51c0 1.12.56 2.03 1.47 2.59.9.45 1.92.45 2.83 0Zm0 0"/><path fill="#689f63" fill-rule="evenodd" d="M445.68 118.5c.34-.23.8-.23 1.13 0l9.14 5.29a.9.9 0 0 1 .57.9v10.58c0 .44-.11.78-.57 1l-9.14 5.3c-.34.11-.79.11-1.13 0l-9.14-5.3a1.17 1.17 0 0 1-.56-1v-10.59c0-.34.22-.67.56-.9Zm0 0"/><g clip-path="url(#a)"><g clip-path="url(#b)"><path fill="url(#c)" d="m286.07 93.28-134.1-65.5-68.63 139.79 133.98 65.5Zm0 0"/></g></g><g clip-path="url(#d)"><g clip-path="url(#e)"><path fill="url(#f)" d="m74.64 112.64 94.6 127.64 125.07-92.19-94.6-127.63Zm0 0"/></g></g><g clip-path="url(#g)"><g clip-path="url(#h)"><path fill="url(#i)" d="M134.36 69.76v120.88h103.5V69.76Zm0 0"/></g></g></svg>