<svg xmlns="http://www.w3.org/2000/svg" version="1.2" viewBox="0 0 506 466">
  <style>
    .s1{fill:none;stroke:#149eca;stroke-width:22.7}
  </style>
  <g id="surface1">
    <path id="Layer" fill="#149eca" d="M298.4 232.9c0 25.1-20.3 45.4-45.4 45.4-25.1 0-45.4-20.3-45.4-45.4 0-25.1 20.3-45.4 45.4-45.4 25.1 0 45.4 20.3 45.4 45.4z"/>
    <path d="M479.9 232.9c0-56.4-101.6-102.1-226.9-102.1-125.3 0-226.9 45.7-226.9 102.1C26.1 289.3 127.7 335 253 335c125.3 0 226.9-45.7 226.9-102.1z" class="s1"/>
    <path d="M366.5 429.4c48.8-28.2 37.6-139-25.1-247.6C278.8 73.3 188.4 8.2 139.5 36.4c-48.8 28.2-37.6 139 25.1 247.5 62.6 108.6 153 173.7 201.9 145.5z" class="s1"/>
    <path d="M139.5 429.4c48.9 28.2 139.3-36.9 201.9-145.5 62.7-108.5 73.9-219.3 25.1-247.5-48.9-28.2-139.3 36.9-201.9 145.4-62.7 108.6-73.9 219.4-25.1 247.6z" class="s1"/>
  </g>
</svg>
